<svg xmlns="http://www.w3.org/2000/svg" width="120" height="100"><path fill="#3987BF" d="M119.652 90.701v4.297h-17.305v-4.297h1.574c1.283 0 2.185-1.266 1.768-2.479l-2.527-7.365h-11.09l-2.86-7.906h11.413l-6.774-20.266-5.733 17.152-4.374-12.414 4.586-13.018h11.043l15.39 43.684c.55 1.564 2.028 2.611 3.688 2.611h1.201v.001zm-29.649-3.346h2.142v7.645h-32.302v-7.645h2.799c2.281 0 3.886-2.252 3.146-4.412l-4.053-11.852h-30.979l-4.053 11.852c-.741 2.16.864 4.412 3.146 4.412h2.8v7.645h-32.301v-7.645h2.14c2.95 0 5.579-1.863 6.561-4.648l27.373-77.707h19.646l27.375 77.707c.981 2.785 3.611 4.648 6.56 4.648zm-54.291-31.578h21.067l-10.533-31.624-10.534 31.624z"/></svg>