<?xml version="1.0" encoding="utf-8"?>
<!-- Generator: Adobe Illustrator 16.0.0, SVG Export Plug-In . SVG Version: 6.00 Build 0)  -->
<!DOCTYPE svg PUBLIC "-//W3C//DTD SVG 1.1//EN" "http://www.w3.org/Graphics/SVG/1.1/DTD/svg11.dtd">
<svg version="1.1" id="Layer_1" xmlns="http://www.w3.org/2000/svg" xmlns:xlink="http://www.w3.org/1999/xlink" x="0px" y="0px"
	 width="150px" height="80px" viewBox="0 0 150 80" enable-background="new 0 0 150 80" xml:space="preserve">
<g>
	<path fill="#FFFFFF" d="M38.624,9.51c0.496-1.49,0.33-1.739-1.16-1.821c-5.052-0.249-7.95-0.497-10.767-0.497
		c-8.199,0-13.582,2.07-16.148,4.306c-2.816,2.319-4.141,5.467-4.307,8.199c-0.165,3.395,1.822,4.968,4.389,4.968
		c1.077,0,2.236-0.414,2.65-0.414c0.663,0,1.74,1.325,1.74,2.484c-0.166,1.823-1.822,3.395-4.058,3.395
		c-4.804,0-7.785-5.548-7.62-9.606c0.249-4.306,1.905-7.95,5.3-11.18c5.549-5.218,13.831-6.046,19.049-6.046
		c5.547,0,10.351,0.663,15.9,1.16c5.135,0.497,10.269,1.077,16.149,1.077c1.737,0,3.145-0.746,3.312-3.479
		c0.081-1.325,0.828-2.235,1.902-2.235c1.077,0,2.319,0.911,2.238,2.732c-0.249,5.714-9.691,6.046-13.418,6.046
		c-2.484,0-5.632-0.332-7.12-0.332c-1.326,0-1.492,0.166-1.905,1.325L31.584,48.848c-2.237,6.543-2.402,7.867,1.822,8.281
		l3.395,0.332c0.663,0.579,0.497,1.738-0.414,2.07c-5.052-0.166-7.95-0.249-11.76-0.249c-3.146,0-5.963,0.083-10.352,0.249
		c-0.663-0.414-0.579-1.574,0-2.07l3.727-0.498c4.058-0.579,4.886-0.828,7.288-8.032L38.624,9.51z M26.532,69.635
		c0,5.797-5.963,9.275-10.683,10.187c-0.414-0.332-0.663-1.16-0.414-1.739c2.235-1.077,6.376-3.396,6.376-6.874
		c0-1.325-0.911-2.401-2.319-2.649c-0.579-0.166-0.993-0.828-0.993-1.822c0-1.574,1.326-2.65,2.982-2.65
		C24.792,64.086,26.532,66.984,26.532,69.635z"/>
	<path fill="#FFFFFF" d="M72.988,23.589c1.407-0.663,3.562,0.165,4.059,1.242c-1.242,3.064-8.448,21.366-11.098,28.903
		c-0.496,1.407-0.082,1.904,0.581,1.904c1.407,0,3.808-1.408,8.528-5.549c0.581,0,1.16,0.414,1.16,1.076
		c-3.479,4.639-9.358,9.275-13.913,9.275c-1.904,0-2.4-1.573-2.4-2.236c0-0.579,0.165-1.324,0.828-3.229l2.73-7.453l-0.246-0.084
		c-5.881,7.288-14.327,13.002-18.222,13.002c-2.319,0-3.643-2.318-3.643-4.637c0-1.905,1.821-8.53,7.288-16.066
		c3.976-5.466,7.535-8.779,10.932-10.684c3.229-1.822,5.301-2.401,7.452-2.401c0.912,0,1.492,0.249,1.989,0.497
		c0.331,0.166,1.24,0.911,1.656,1.739L72.988,23.589z M58.579,33.029C53.277,37.75,48.228,48.6,48.228,54.48
		c0,0.992,0.495,1.572,1.242,1.572c0.828,0,3.312-1.076,8.033-5.383c6.294-5.88,9.772-13.002,11.096-17.888
		c-0.579-1.574-1.986-2.981-4.141-2.981C62.472,29.801,61.146,30.711,58.579,33.029z"/>
	<path fill="#FFFFFF" d="M84.994,53.899c-0.664,1.905-0.58,2.733,0.33,2.733c1.821,0,5.716-4.059,9.523-8.365
		c0.828-0.082,1.326,0.332,1.326,1.16c-2.154,4.141-7.372,11.014-14.244,11.014c-2.484,0-3.23-1.159-3.23-2.484
		c0-1.324,0.414-2.815,1.821-7.039l13.169-39.171c1.986-5.797,1.158-6.625-0.084-7.206l-1.488-0.662
		c-0.414-0.332-0.414-1.077,0-1.326c1.488-0.579,6.625-2.153,10.433-2.484l0.414,0.498c-1.074,2.981-1.902,5.299-4.885,14.244
		L84.994,53.899z"/>
	<path fill="#FFFFFF" d="M126.316,30.462c0,6.294-8.198,10.435-20.124,13.747c-0.58,1.409-1.159,4.059-1.159,7.371
		c0,2.816,1.737,4.721,3.976,4.721c2.979,0,5.05-1.656,8.695-4.803c0.745,0,1.242,0.662,1.077,1.406
		c-5.053,6.213-9.772,7.537-13.251,7.537c-4.969,0-6.708-4.637-6.708-8.695c0-5.217,3.312-15.32,12.339-22.277
		c4.308-3.313,7.536-3.976,9.937-3.976C124.411,25.493,126.316,28.31,126.316,30.462z M113.149,32.036
		c-3.229,3.478-5.135,7.288-6.129,9.688c5.466-1.656,8.034-3.229,11.098-6.127c2.565-2.402,3.229-4.886,3.229-5.632
		c0-0.828-0.414-1.905-1.906-1.905C118.283,28.061,116.129,28.806,113.149,32.036z"/>
	<path fill="#FFFFFF" d="M147.433,30.215c0,1.325-0.829,2.235-1.491,2.567c-0.58,0.165-1.077,0-1.573-0.663
		c-1.407-1.407-2.484-2.649-5.053-2.649c-2.4,0-3.394,2.07-3.394,3.312c0,1.739,0.414,3.478,2.814,7.536
		c2.07,3.478,3.312,5.548,3.147,9.192c-0.084,2.236-1.242,5.301-4.306,7.951c-2.154,1.904-5.218,2.98-8.365,2.98
		s-5.053-2.484-5.053-4.389c0-0.828,0.332-1.739,1.242-2.732c0.663-0.58,1.574-0.58,2.238,0c1.074,1.242,3.559,3.312,5.713,3.312
		c1.989,0,3.976-2.07,3.976-4.721c0-1.408-0.993-3.975-3.063-7.289c-2.154-3.478-2.898-6.293-2.898-7.701
		c0-3.23,1.407-5.632,4.969-8.696c2.4-2.07,5.05-2.733,6.127-2.733C145.527,25.493,147.433,28.144,147.433,30.215z"/>
</g>
</svg>
